<svg class="svg-icon" style="width: 1.0615234375em;height: 1em;vertical-align: middle;fill: #5E9CEC;overflow: hidden;" viewBox="0 0 1087 1024" version="1.1" xmlns="http://www.w3.org/2000/svg"><path d="M449.674849 572.918119h187.1993c0-71.758666-42.019112-74.572731-93.631628-74.572731-51.676472 0-93.567672 2.814065-93.567672 74.572731z" fill="#434343" /><path d="M679.021173 66.642183C651.008432 28.652302 600.994816 0 543.370433 0c-57.688339 0-107.701955 28.652302-135.522828 66.642183H257.231154v58.583724h1.343076v0.191868h130.470302C329.62938 161.488976 255.824121 184.577103 255.824121 283.517082s47.583286 95.806133 64.979327 121.516457v337.68784c0 96.893386 66.961964 131.30173 130.917994 143.645244v40.612079c0 27.373181 30.890763 96.317782 92.416463 96.317782 61.078009 0 93.951408-68.944601 93.951409-96.317782v-41.059771c63.188558-12.72725 128.423709-47.583286 128.423708-143.197552V397.102992c15.989008-26.030104 63.63625-17.332084 63.63625-121.260634s-77.706577-116.144151-134.243707-150.552495h134.243707V66.70614h-151.128099v-0.063957zM543.370433 61.269877c55.25801 0 99.963275 44.449441 99.963275 99.323715 0 54.746362-44.705265 99.259759-99.963275 99.259759a99.515583 99.515583 0 0 1-99.899319-99.259759c0-54.874274 44.641309-99.323715 99.899319-99.323715z m162.06458 684.265567c0 36.838673-14.645931 62.485042-65.874711 75.148336v-180.100181H450.186497v180.100181c-53.275373-13.302854-68.432952-40.484167-68.432953-77.962401V467.134845c44.321529 27.756917 101.306352 44.065705 163.407658 43.17032 61.333833-0.95934 117.103491-18.547249 160.337767-46.87977v282.110049h-0.063956z" fill="#4A88DC" /></svg>