<svg class="svg-icon" style="width: 1em;height: 1em;vertical-align: middle;fill: currentColor;overflow: hidden;" viewBox="0 0 1024 1024" version="1.1" xmlns="http://www.w3.org/2000/svg"><path d="M877.77 772.71l-3.654-1.062c-52.938-14.218-70.812-27.844-94.376-36.844-83.622-31.842-105.372-54.81-110.934-65.622-0.188-0.406-0.344-0.812-0.532-1.218l-0.688-97.092L512 568.624l-155.59 2.25-0.688 97.092c-0.188 0.406-0.344 0.812-0.532 1.218-5.562 10.81-27.31 33.78-110.902 65.622-23.562 9-41.468 22.624-94.404 36.844l-3.656 1.062c-48.186 15.906-80.59 60.592-80.59 111.028v140.246h892.724V883.74c0-50.438-32.406-95.122-80.592-111.03z" fill="#A0D468" /><path d="M512 85.402c-151.934 0-275.086 117.92-275.086 296.68 0 178.728 170.4 343.222 275.086 343.222 104.684 0 275.116-164.494 275.116-343.222 0-178.76-123.184-296.68-275.116-296.68z" fill="#EAC6BB" /><path d="M786.928 370.816c0.094 3.734 0.188 7.468 0.188 11.266 0 14.312-1.156 28.53-3.218 42.576 9.282 13.688 12.094 31.39 7.156 49.688-5.906 21.638-22.404 41.248-46.436 55.186-30.748 17.78-73.56 26.498-123.746 25.154l-1.188 42.624c3.938 0.124 7.75 0.156 11.532 0.156 125.464 0 186.088-57.184 200.994-111.934 12.498-45.984-5.688-91.794-45.282-114.716z" fill="#656D78" /><path d="M603.748 31.966l-73.282 211.37c227.962-30.672 272.898 130.48 272.898 130.48 90.78-343.1-199.616-341.85-199.616-341.85z" fill="#DA4453" /><path d="M803.928 455.206l-21.062-75.576c-0.312-0.968-9.374-30.718-37.624-59.794-38.06-39.188-91.686-59.044-159.432-59.044-16.624 0-34.312 1.234-52.5 3.688l-34.374 4.624 89.624-258.4 15.25-0.078c4.998 0 123.746 1.032 192.118 89.842 50.312 65.326 59.75 159.122 28.062 278.82l-20.062 75.918zM585.81 218.118c100.622 0 159.838 40.156 191.804 73.842a213.48 213.48 0 0 1 17.062 20.376c12.438-79.17 1.562-141.528-32.56-185.838-42.904-55.764-113.124-69.044-143.528-72.216l-57.092 164.588a401.76 401.76 0 0 1 24.314-0.752z" fill="#DA4453" /><path d="M743.93 52.982C741.306 50.81 677.932 0.016 550.81 0.016c-44.654 0-92.246 6.326-141.434 18.81-65.216 16.532-116.684 52.64-152.962 107.326-29.656 44.67-49.188 102.012-58.092 170.4-15.156 116.714 4.186 241.556 17.06 305.568l22.938 114.06 19.032-114.81c0.124-0.812 14.686-86.152 65.28-169.792 29.186-48.216 64.498-86.514 104.996-113.824 50.216-33.844 108.996-50.998 174.714-50.998 20.06 0 41.09 1.594 62.528 4.766l17.5 2.578 73.06-211.712-11.5-9.406z" fill="#ED5564" /><path d="M578.624 521.36c-0.876 0-1.782 0.016-2.688 0.046-37.782 1.14-67.686 26.53-66.748 56.654 0.906 29.436 30.842 52.56 67.436 52.56 0.876 0 1.75 0 2.656-0.062 37.78-1.124 67.684-26.5 66.778-56.654-0.908-29.438-30.844-52.544-67.434-52.544z" fill="#434A54" /></svg>