<svg class="svg-icon" style="width: 1em;height: 1em;vertical-align: middle;fill: currentColor;overflow: hidden;" viewBox="0 0 1024 1024" version="1.1" xmlns="http://www.w3.org/2000/svg"><path d="M192.006 485.346c-2.922 0-5.828-0.624-8.546-1.812L98.118 446.22a21.34 21.34 0 0 1-12.782-19.562v-57.592c0-11.782 9.562-21.344 21.344-21.344s21.328 9.562 21.328 21.344l142.966 47.904c11.25-3.5 23.218 2.75 26.734 14 3.5 11.25-2.766 23.218-14 26.718l-85.342 26.688a22.08 22.08 0 0 1-6.36 0.97zM707.996 352.004c-2.188 0-136.372 21-138.528 20.312-11.218-3.624-17.406-15.624-13.782-26.844 12.5-38.904 41.81-71.624 84.684-94.624 31.376-16.844 59.282-22.718 60.438-22.968 11.562-2.376 22.844 5.062 25.25 16.594 2.376 11.532-9.062 107.53-18.062 107.53z" fill="#434A54" /><path d="M296.972 634.902c-0.624 0-1.234 0-1.86-0.062-11.75-1.032-20.436-11.344-19.42-23.09l11.53-133.592c1.016-11.718 11.344-20.406 23.094-19.406 11.734 1 20.42 11.344 19.406 23.094l-11.53 133.56c-0.954 11.122-10.266 19.496-21.22 19.496z" fill="#E6E9ED" /><path d="M170.678 522.656c-94.108 0-170.668 76.562-170.668 170.684 0 94.094 76.56 170.652 170.668 170.652 94.092 0 170.652-76.558 170.652-170.652 0.002-94.122-76.56-170.684-170.652-170.684zM853.304 522.656c-94.058 0-170.622 76.562-170.622 170.684 0 94.094 76.562 170.652 170.622 170.652 94.124 0 170.686-76.558 170.686-170.652 0-94.122-76.56-170.684-170.686-170.684z" fill="#434A54" /><path d="M170.678 618.652c-41.172 0-74.67 33.5-74.67 74.688 0 41.156 33.5 74.656 74.67 74.656s74.654-33.5 74.654-74.656c0.002-41.188-33.482-74.688-74.654-74.688zM853.304 618.652c-41.154 0-74.622 33.5-74.622 74.688 0 41.156 33.466 74.656 74.622 74.656 41.188 0 74.688-33.5 74.688-74.656 0-41.188-33.5-74.688-74.688-74.688z" fill="#CCD1D9" /><path d="M170.694 714.652c-7.078 0-14-3.5-18.062-9.938-6.282-9.968-3.312-23.124 6.656-29.438L361.94 547.28c9.968-6.282 23.14-3.312 29.436 6.656 6.282 9.968 3.312 23.156-6.656 29.438L182.068 711.372a21.39 21.39 0 0 1-11.374 3.28z" fill="#E6E9ED" /><path d="M548.438 580.406c-8.344 8.344-21.86 8.344-30.188 0-8.328-8.312-8.328-21.812 0-30.156s21.844-8.344 30.188 0c8.312 8.344 8.312 21.844 0 30.156z"  /><path d="M966.742 374.442l-128-42.688a21.516 21.516 0 0 0-6.748-1.094h-92.81c-11.782 0-21.312 9.562-21.312 21.344s9.532 21.344 21.312 21.344h89.374l124.686 41.56c2.25 0.75 4.5 1.094 6.75 1.094 8.938 0 17.25-5.654 20.25-14.592 3.716-11.156-2.314-23.25-13.502-26.968z" fill="#4A89DC" /><path d="M618.686 629.34H405.33a21.42 21.42 0 0 1-17.062-8.532l-124.404-165.9-207.778-83.092c-9.5-3.812-14.968-13.812-13.032-23.844s10.718-17.312 20.954-17.312h509.054l146.278-41.216c10.968-3.062 22.406 2.968 26.032 13.782l14.062 42.03a21.552 21.552 0 0 1-0.938 15.844l-120.532 255.992a21.342 21.342 0 0 1-19.278 12.248z" fill="#CCD1D9" /><path d="M448 458.658c-35.296 0-64 28.718-64 63.998 0 35.312 28.704 64 64 64s64-28.688 64-64c0-35.28-28.704-63.998-64-63.998zM540.36 407.036c-11.578-2.218-22.75 5.406-24.954 16.966-2.204 11.562 5.39 22.75 16.968 24.938 34.062 6.5 61.092 33.75 80.404 80.998 15.532 37.968 19.686 74.656 19.78 75.438a21.256 21.256 0 0 0 5.312 11.934c0-0.094 0.062-0.156 0.094-0.218l28.468-60.496c-13.624-52.47-47.246-134.532-126.072-149.56z" fill="#E6E9ED" /><path d="M263.864 454.908L56.086 371.816c-9.5-3.812-14.968-13.812-13.032-23.844s10.718-17.312 20.954-17.312h509.054l146.278-41.216c10.968-3.062 22.406 2.968 26.032 13.782l14.062 42.03a21.552 21.552 0 0 1-0.938 15.844l-22.5 47.75c0-0.002-123.342 84.496-472.132 46.058z" fill="#5D9CEC" /><path d="M211.538 330.66H64.008c-10.234 0-19.016 7.282-20.954 17.312s3.532 20.032 13.032 23.844l207.778 83.092c52.67 5.812 100.202 8.812 142.95 9.718-51.264-87.84-149.044-125.966-195.276-133.966z" fill="#4A89DC" /><path d="M853.304 714.684c-8.938 0-17.25-5.656-20.216-14.594l-165.78-497.426h-48.624c-11.812 0-21.376-9.532-21.376-21.312s9.562-21.344 21.376-21.344h63.998c9.156 0 17.312 5.876 20.218 14.594l170.652 511.988c3.75 11.156-2.312 23.25-13.5 26.968a21.068 21.068 0 0 1-6.748 1.126z" fill="#E6E9ED" /></svg>